<?xml version="1.0" standalone="no"?>
<!DOCTYPE svg PUBLIC "-//W3C//DTD SVG 20010904//EN"
 "http://www.w3.org/TR/2001/REC-SVG-20010904/DTD/svg10.dtd">
<svg version="1.0" xmlns="http://www.w3.org/2000/svg"
 width="1250.000000pt" height="1250.000000pt" viewBox="0 0 1250.000000 1250.000000"
 preserveAspectRatio="xMidYMid meet">
<metadata>
Created by potrace 1.14, written by Peter Selinger 2001-2017
</metadata>
<g transform="translate(0.000000,1250.000000) scale(0.100000,-0.100000)"
fill="#000000" stroke="none">
<path d="M1108 7043 c-9 -10 -200 -313 -426 -673 -225 -360 -446 -713 -490
-784 -45 -71 -79 -133 -76 -137 8 -13 420 -9 437 4 8 7 119 183 247 392 280
456 352 574 406 661 l41 66 234 -391 c129 -215 236 -390 239 -391 3 0 54 81
114 180 l108 179 -228 368 c-125 202 -252 407 -281 454 l-54 87 -127 1 c-112
2 -130 0 -144 -16z"/>
<path d="M2868 7043 c-8 -10 -81 -124 -160 -253 -80 -129 -295 -475 -477 -769
-346 -556 -339 -542 -297 -573 11 -7 354 -8 373 -1 7 3 51 69 99 146 48 78
112 183 143 233 31 49 146 237 256 416 110 180 203 323 207 320 4 -4 83 -133
176 -287 440 -729 496 -820 506 -827 12 -8 446 -10 446 -2 0 2 -64 107 -142
232 -161 259 -313 503 -483 777 -65 105 -176 283 -246 396 l-129 207 -128 1
c-112 2 -130 0 -144 -16z"/>
<path d="M4681 6261 c-292 -439 -531 -804 -531 -810 0 -9 58 -11 233 -9 l232
3 40 60 c50 75 279 426 511 783 97 149 179 272 183 272 3 0 168 -251 367 -558
l361 -557 237 -1 c130 -1 236 2 236 7 0 4 -98 156 -218 336 -307 463 -724
1093 -785 1188 l-52 80 -141 2 -142 2 -531 -798z"/>
<path d="M6583 7052 c-6 -4 193 -185 443 -402 249 -217 454 -397 454 -400 0
-3 -205 -183 -454 -400 -250 -217 -452 -398 -450 -402 2 -3 132 -7 289 -7
l285 -1 293 262 c160 143 301 269 312 279 20 18 25 15 335 -261 l314 -280 283
0 c169 0 283 4 283 9 0 6 -201 188 -447 407 -247 218 -449 399 -450 403 -1 3
196 177 438 386 242 209 447 387 455 396 14 15 -7 17 -275 18 l-289 2 -299
-268 c-164 -147 -306 -274 -315 -281 -13 -11 -58 26 -328 268 l-312 281 -277
-2 c-153 0 -283 -4 -288 -7z"/>
<path d="M8991 7051 c0 -3 205 -183 455 -400 250 -217 454 -397 454 -401 0 -4
-204 -185 -454 -401 -249 -217 -451 -397 -449 -401 2 -5 132 -7 289 -7 l286 1
36 32 c20 17 162 143 314 279 l278 248 314 -280 315 -280 286 0 c157 0 285 4
285 8 0 5 -202 188 -450 407 -247 219 -450 400 -450 404 0 3 202 180 450 394
247 214 448 392 445 396 -3 5 -130 9 -284 9 l-279 2 -49 -43 c-28 -24 -168
-149 -312 -278 -145 -129 -266 -236 -269 -237 -4 -1 -146 123 -317 277 l-310
279 -292 -1 c-161 -1 -293 -4 -292 -7z"/>
<path d="M12024 7050 c-154 -32 -263 -169 -251 -315 8 -111 73 -207 173 -256
41 -20 64 -24 139 -24 78 0 97 4 140 27 166 88 218 283 118 441 -59 94 -203
151 -319 127z m182 -96 c67 -41 107 -117 105 -203 -2 -140 -92 -233 -226 -233
-245 0 -323 340 -103 451 64 32 158 26 224 -15z"/>
<path d="M11987 6903 l-29 -5 4 -151 3 -152 35 0 35 0 5 60 c5 60 5 60 35 57
39 -5 47 -13 65 -70 14 -45 17 -47 53 -47 29 0 36 3 31 15 -3 8 -8 29 -11 45
-8 40 -31 85 -44 85 -6 0 3 13 20 29 48 45 38 101 -24 127 -32 13 -114 16
-178 7z m141 -66 c34 -27 0 -67 -57 -67 -29 0 -31 2 -31 39 0 22 5 41 13 44
15 6 58 -3 75 -16z"/>
</g>
</svg>
